<svg width="73" height="84" viewBox="0 0 73 84" fill="none" xmlns="http://www.w3.org/2000/svg">
<path d="M36.5 72.6923C56.6584 72.6923 73 56.4196 73 36.3462C73 16.2727 56.6584 0 36.5 0C16.3416 0 0 16.2727 0 36.3462C0 56.4196 16.3416 72.6923 36.5 72.6923Z" fill="#E9EAEB"/>
<path d="M59.4815 26.923C59.4815 16.9615 49.4778 6.73071 37.1759 6.73071C24.8741 6.73071 14.8704 16.9615 14.8704 26.923V41.7307C14.8704 41.7307 17.0333 43.0769 20.2778 44.423C20.2778 52.2307 24.4685 58.8269 31.2278 62.8653C31.363 62.8653 31.4981 62.9999 31.6333 62.9999C35.2833 65.0192 39.6093 65.0192 43.2593 62.9999C43.3944 62.9999 43.3944 62.8653 43.3944 62.8653C46.7741 60.8461 49.3426 58.1538 51.2352 54.923C51.9111 55.0576 52.4518 55.1922 52.8574 55.1922C57.3185 55.1922 59.6167 49.8076 59.6167 49.8076V26.923H59.4815Z" fill="white"/>
<path d="M59.4815 44.423V27.3269C59.4815 17.4999 49.4778 6.73071 37.1759 6.73071C24.8741 6.73071 14.8704 17.4999 14.8704 27.3269V41.7307" stroke="#2A5082" stroke-width="2" stroke-miterlimit="10"/>
<path d="M25.6853 57.8845V67.3076" stroke="#2A5082" stroke-width="2" stroke-miterlimit="10"/>
<path d="M48.6667 57.8845V67.3076" stroke="#2A5082" stroke-width="2" stroke-miterlimit="10"/>
<path d="M51.3287 63.3639L37.8506 76.7852L43.2992 82.2108L56.7773 68.7895L51.3287 63.3639Z" stroke="#2A5082" stroke-width="2" stroke-miterlimit="10"/>
<path d="M23.0216 63.1735L17.573 68.5991L31.0511 82.0204L36.4997 76.5948L23.0216 63.1735Z" stroke="#2A5082" stroke-width="2" stroke-miterlimit="10"/>
<path d="M13.924 47.1153H14.8703V33.6538H13.924C10.95 33.6538 8.11108 36.4807 8.11108 39.4423V41.3269C8.11108 44.2884 10.95 47.1153 13.924 47.1153Z" fill="#A3D4FF" stroke="#2A5082" stroke-width="2" stroke-miterlimit="10"/>
<path d="M60.4277 47.1153H59.4814V33.6538H60.4277C63.6722 33.6538 66.2407 36.2115 66.2407 39.4423V41.3269C66.2407 44.5577 63.6722 47.1153 60.4277 47.1153Z" fill="#A3D4FF" stroke="#2A5082" stroke-width="2" stroke-miterlimit="10"/>
<path d="M54.0741 39.0384V43.8846C54.0741 51.6923 50.0185 58.8269 43.2592 62.8653C43.1241 62.8653 43.1241 63 43.1241 63C39.6092 65.1538 35.1481 65.1538 31.4981 63C31.3629 63 31.2278 62.8653 31.0926 62.8653C24.3333 58.8269 20.1426 51.6923 20.1426 43.8846V33.6538" stroke="#2A5082" stroke-width="2" stroke-miterlimit="10"/>
<path d="M28.3889 17.5C28.3889 26.9231 47.1797 39.0385 56.7778 39.0385" stroke="#2A5082" stroke-width="2" stroke-miterlimit="10"/>
<path d="M20.2778 33.6538C21.4945 29.6153 27.0371 24.2307 31.0926 24.2307" stroke="#2A5082" stroke-width="2" stroke-miterlimit="10"/>
<path d="M37.8518 55.1924H45.9629H51.6407C54.75 55.1924 57.4537 53.3077 58.5351 50.4808L59.4814 48.4616V45.7693" stroke="#2A5082" stroke-width="2" stroke-miterlimit="10"/>
<path d="M39.2036 57.8846H35.148C33.661 57.8846 32.4443 56.673 32.4443 55.1923V53.8461C32.4443 52.3653 33.661 51.1538 35.148 51.1538H39.2036C40.6906 51.1538 41.9073 52.3653 41.9073 53.8461V55.1923C41.9073 56.673 40.6906 57.8846 39.2036 57.8846Z" fill="#A3D4FF" stroke="#2A5082" stroke-width="2" stroke-miterlimit="10"/>
</svg>
