<svg width="86" height="85" viewBox="0 0 86 85" fill="none" xmlns="http://www.w3.org/2000/svg">
<path d="M42.4434 68.75C56.2774 68.75 67.492 57.6194 67.492 43.8889C67.492 30.1585 56.2774 19.0278 42.4434 19.0278C28.6095 19.0278 17.3949 30.1585 17.3949 43.8889C17.3949 57.6194 28.6095 68.75 42.4434 68.75Z" fill="#E9EAEB"/>
<path d="M51.6278 63.6111C48.1488 60.5555 42.165 58.3333 37.5728 58.3333C36.1812 59.3055 33.5372 62.2222 32.4239 63.6111C29.7799 62.7777 26.9967 59.8611 24.4919 56.8055C21.987 53.75 19.7605 50.4166 19.343 47.7777C20.8738 47.0833 24.3527 45 25.6052 43.8889C26.5793 39.4444 25.466 33.1944 23.1003 29.1666C20.3171 28.75 13.7767 28.8889 9.04529 30.9722C7.09707 36.8055 6.40128 49.8611 17.3948 63.6111C28.8058 76.9444 41.8867 76.9444 48.0097 76.1111C51.0712 71.8055 51.4887 66.3889 51.6278 63.6111Z" fill="#A3D4FF" stroke="#2A5082" stroke-width="2" stroke-miterlimit="10"/>
<path d="M47.8709 45.4167H36.8772V44.1667L41.1911 40C42.4435 38.8889 43.2785 37.9167 43.696 37.3611C44.2526 36.8056 44.5309 36.1111 44.8092 35.5556C45.0876 35 45.0876 34.4445 45.0876 33.75C45.0876 32.9167 44.5309 31.1111 42.0261 30.5556C39.6604 30 38.4081 31.3889 36.8773 33.4723" stroke="#2A5082" stroke-width="2" stroke-miterlimit="10"/>
<path d="M60.5341 41.25H49.4014V39.1667L54.9677 30.1389H57.7509V46.8056" stroke="#2A5082" stroke-width="2" stroke-miterlimit="10"/>
<path d="M43 83.6111C20.0388 83.6111 1.3916 65.1388 1.3916 42.2222" stroke="#BCC0C4" stroke-width="2" stroke-miterlimit="10"/>
<path d="M50.6536 1.38892C69.9966 5.00003 84.6083 21.9445 84.6083 42.2222" stroke="#BCC0C4" stroke-width="2" stroke-miterlimit="10"/>
<path d="M82.3819 57.3613C78.9029 66.3891 72.3625 74.028 64.0129 78.7502" stroke="#BCC0C4" stroke-width="2" stroke-miterlimit="10"/>
<path d="M14.1941 23.1943C20.4562 14.7221 30.3365 9.30542 41.7475 9.30542C60.5339 9.30542 75.8413 24.5832 75.8413 43.3332C75.8413 57.9165 66.5177 70.4165 53.576 75.2776" stroke="#2A5082" stroke-width="2" stroke-miterlimit="10"/>
<path d="M46.6182 52.3611H49.4013" stroke="#2A5082" stroke-width="2" stroke-miterlimit="10"/>
<path d="M52.1844 52.3611H54.9676" stroke="#2A5082" stroke-width="2" stroke-miterlimit="10"/>
<path d="M57.7509 52.3611H60.534" stroke="#2A5082" stroke-width="2" stroke-miterlimit="10"/>
</svg>
