<svg width="32" height="32" viewBox="0 0 32 32" fill="none" xmlns="http://www.w3.org/2000/svg">
<path d="M25.6582 30.3679L28.16 27.8615C29.1491 26.8707 29.0328 25.2386 27.9273 24.3643L24.0291 21.3333C23.1564 20.6921 21.9928 20.6921 21.1782 21.3333L20.3055 22.0328C19.3746 22.7905 18.0364 22.6739 17.2218 21.8579L10.24 14.8634C9.42548 14.0473 9.30912 12.7067 10.0655 11.7741L10.7637 10.8998C11.4037 10.0838 11.4618 8.85972 10.7637 8.04369L7.73821 4.13841C6.86548 3.03094 5.23639 2.91437 4.2473 3.90526L1.74548 6.41163C2.98515e-05 8.10198 0.058212 12.9399 9.60003 22.4991C19.1418 32.0583 24.0873 31.9417 25.6582 30.3679Z" stroke="white" stroke-width="2" stroke-miterlimit="10" stroke-linecap="round" stroke-linejoin="round"/>
<path d="M31.1274 15.4462C31.1274 7.4025 24.611 0.874268 16.5819 0.874268" stroke="white" stroke-width="2" stroke-miterlimit="10" stroke-linecap="round" stroke-linejoin="round"/>
<path d="M16.5819 4.37158C22.691 4.37158 27.6365 9.32604 27.6365 15.4463" stroke="white" stroke-width="2" stroke-miterlimit="10" stroke-linecap="round" stroke-linejoin="round"/>
<path d="M16.5819 7.8689C20.771 7.8689 24.1455 11.2496 24.1455 15.4463" stroke="white" stroke-width="2" stroke-miterlimit="10" stroke-linecap="round" stroke-linejoin="round"/>
<path d="M16.5819 11.366C18.851 11.366 20.6546 13.1729 20.6546 15.4461" stroke="white" stroke-width="2" stroke-miterlimit="10" stroke-linecap="round" stroke-linejoin="round"/>
</svg>
